<svg width="13" height="16" viewBox="0 0 13 16" fill="none" xmlns="http://www.w3.org/2000/svg">
<path d="M12.5851 2.21435H9.68085V1.52237C9.68085 1.11861 9.52057 0.731391 9.23528 0.445891C8.94998 0.160392 8.56304 0 8.15957 0H4.84043C4.43696 0 4.05001 0.160392 3.76472 0.445891C3.47943 0.731391 3.31915 1.11861 3.31915 1.52237V2.21435H0.414894C0.304857 2.21435 0.199327 2.2581 0.121519 2.33596C0.0437118 2.41382 0 2.51943 0 2.62955C0 2.73966 0.0437118 2.84527 0.121519 2.92313C0.199327 3.00099 0.304857 3.04474 0.414894 3.04474H0.708085L1.5766 13.8231C1.60965 14.2035 1.78332 14.5579 2.06365 14.8169C2.34398 15.0759 2.71079 15.221 3.09234 15.2237H9.90766C10.2892 15.221 10.656 15.0759 10.9363 14.8169C11.2167 14.5579 11.3904 14.2035 11.4234 13.8231L12.2919 3.04474H12.5851C12.6951 3.04474 12.8007 3.00099 12.8785 2.92313C12.9563 2.84527 13 2.73966 13 2.62955C13 2.51943 12.9563 2.41382 12.8785 2.33596C12.8007 2.2581 12.6951 2.21435 12.5851 2.21435ZM4.14894 1.52237C4.14894 1.33884 4.22179 1.16283 4.35147 1.03306C4.48115 0.903288 4.65703 0.830383 4.84043 0.830383H8.15957C8.34297 0.830383 8.51885 0.903288 8.64853 1.03306C8.77821 1.16283 8.85106 1.33884 8.85106 1.52237V2.21435H4.14894V1.52237ZM10.5936 13.7567C10.5784 13.93 10.4991 14.0913 10.3712 14.2091C10.2433 14.3269 10.076 14.3926 9.90213 14.3933H3.09234C2.91947 14.3912 2.75354 14.3249 2.62677 14.2073C2.50001 14.0896 2.42146 13.929 2.40638 13.7567L1.52128 3.04474H11.4787L10.5936 13.7567ZM9.12766 5.95108V11.487C9.12766 11.5971 9.08395 11.7027 9.00614 11.7805C8.92833 11.8584 8.8228 11.9022 8.71277 11.9022C8.60273 11.9022 8.4972 11.8584 8.41939 11.7805C8.34158 11.7027 8.29787 11.5971 8.29787 11.487V5.95108C8.29787 5.84096 8.34158 5.73536 8.41939 5.65749C8.4972 5.57963 8.60273 5.53588 8.71277 5.53588C8.8228 5.53588 8.92833 5.57963 9.00614 5.65749C9.08395 5.73536 9.12766 5.84096 9.12766 5.95108ZM6.91489 5.95108V11.487C6.91489 11.5971 6.87118 11.7027 6.79337 11.7805C6.71557 11.8584 6.61004 11.9022 6.5 11.9022C6.38996 11.9022 6.28443 11.8584 6.20663 11.7805C6.12882 11.7027 6.08511 11.5971 6.08511 11.487V5.95108C6.08511 5.84096 6.12882 5.73536 6.20663 5.65749C6.28443 5.57963 6.38996 5.53588 6.5 5.53588C6.61004 5.53588 6.71557 5.57963 6.79337 5.65749C6.87118 5.73536 6.91489 5.84096 6.91489 5.95108ZM4.70213 5.95108V11.487C4.70213 11.5971 4.65842 11.7027 4.58061 11.7805C4.5028 11.8584 4.39727 11.9022 4.28723 11.9022C4.1772 11.9022 4.07167 11.8584 3.99386 11.7805C3.91605 11.7027 3.87234 11.5971 3.87234 11.487V5.95108C3.87234 5.84096 3.91605 5.73536 3.99386 5.65749C4.07167 5.57963 4.1772 5.53588 4.28723 5.53588C4.39727 5.53588 4.5028 5.57963 4.58061 5.65749C4.65842 5.73536 4.70213 5.84096 4.70213 5.95108Z" fill="#737373"/>
</svg>
