<svg width="15" height="15" viewBox="0 0 15 15" fill="none" xmlns="http://www.w3.org/2000/svg">
<path d="M10.7812 14.9988H1.71879C0.770654 14.9988 0 14.2281 0 13.28V4.21751C0 3.26937 0.770654 2.49872 1.71879 2.49872H7.03125C7.29 2.49872 7.5 2.70872 7.5 2.96747C7.5 3.22622 7.29 3.43622 7.03125 3.43622H1.71879C1.28813 3.43622 0.9375 3.78687 0.9375 4.21751V13.28C0.9375 13.7106 1.28815 14.0613 1.71879 14.0613H10.7812C11.2119 14.0613 11.5625 13.7106 11.5625 13.28V7.96751C11.5625 7.70876 11.7725 7.49876 12.0313 7.49876C12.29 7.49876 12.5 7.70817 12.5 7.96751V13.28C12.5 14.2281 11.7294 14.9988 10.7812 14.9988Z" fill="#737373"/>
<path d="M5.48414 9.98498C5.361 9.98498 5.24095 9.93623 5.15282 9.84754C5.04158 9.73689 4.99409 9.57746 5.02476 9.42435L5.46662 7.21437C5.48467 7.12365 5.52924 7.04033 5.59468 6.97496L12.0679 0.502515C12.7378 -0.167505 13.8279 -0.167505 14.4985 0.502515C14.8228 0.826831 15.0016 1.25817 15.0016 1.71754C15.0016 2.17692 14.8228 2.60811 14.4979 2.93257L8.02541 9.40569C7.96011 9.47122 7.87675 9.5158 7.786 9.53375L5.5766 9.9756C5.54593 9.9819 5.5147 9.98498 5.48414 9.98498ZM6.35786 7.53754L6.08218 8.91875L7.46282 8.64248L13.8353 2.27005C13.9829 2.12187 14.0641 1.92628 14.0641 1.71754C14.0641 1.5088 13.9829 1.3131 13.8353 1.165C13.5316 0.86061 13.036 0.86061 12.7304 1.165L6.35786 7.53754Z" fill="#737373"/>
<path d="M13.2829 3.95443C13.163 3.95443 13.043 3.90876 12.9517 3.81685L11.1842 2.04876C11.0011 1.86565 11.0011 1.56879 11.1842 1.38568C11.3673 1.20258 11.6642 1.20258 11.8474 1.38568L13.6148 3.15378C13.7979 3.33688 13.7979 3.63375 13.6148 3.81685C13.5268 3.90486 13.4074 3.95434 13.2829 3.95443Z" fill="#737373"/>
</svg>
