<svg width="150" height="170" viewBox="0 0 150 170" fill="none" xmlns="http://www.w3.org/2000/svg">
<path d="M104.33 62.7613C104.33 62.7613 108.517 87.8841 123.172 85.7905C137.827 83.6969 148.643 58.5742 149.341 25.7751C149.341 25.7751 156.669 77.4163 122.474 100.445C122.474 100.445 125.614 112.309 118.636 118.241C118.636 118.241 121.776 96.6072 78.1602 120.334C78.1602 120.334 101.887 99.0497 108.168 99.0497C108.168 99.0497 100.84 82.9991 104.33 62.7613Z" fill="white"/>
<path d="M99.7935 96.9562C88.9768 99.3987 77.1133 113.007 77.1133 113.007V99.779C79.4127 99.2277 81.1259 97.1551 81.1259 94.6881C81.1259 92.2212 79.4127 90.1486 77.1133 89.5973V66.2506C88.1394 70.04 98.1431 62.2624 98.3943 62.067C90.7214 77.7687 99.7935 96.9562 99.7935 96.9562Z" fill="white"/>
<path d="M88.4531 42.6074L99.0954 42.8726L103.98 31.358L108.014 43.3053L118.635 44.6172L109.563 50.2001L111.308 61.0168L102.585 54.7361L92.867 61.0168L95.955 49.8511L88.4531 42.6074Z" fill="white"/>
<path d="M121.253 82.3012C125.589 82.3012 129.104 77.0678 129.104 70.6121C129.104 64.1565 125.589 58.9231 121.253 58.9231C116.917 58.9231 113.402 64.1565 113.402 70.6121C113.402 77.0678 116.917 82.3012 121.253 82.3012Z" fill="white"/>
<path d="M45.671 62.7613C45.671 62.7613 41.4839 87.8841 26.829 85.7905C12.174 83.6969 1.35732 58.5742 0.659471 25.7751C0.659471 25.7751 -6.66798 77.4163 27.5268 100.445C27.5268 100.445 24.3865 112.309 31.365 118.241C31.365 118.241 28.2247 96.6072 71.8405 120.334C71.8405 120.334 48.1135 99.0497 41.8328 99.0497C41.8328 99.0497 49.1602 82.9991 45.671 62.7613Z" fill="white"/>
<path d="M50.207 96.9562C61.0238 99.3987 72.8873 113.007 72.8873 113.007V99.779C70.5878 99.2277 68.8746 97.1551 68.8746 94.6881C68.8746 92.2212 70.5878 90.1486 72.8873 89.5973V66.2506C61.8612 70.04 51.8575 62.2624 51.6062 62.067C59.2791 77.7687 50.207 96.9562 50.207 96.9562Z" fill="white"/>
<path d="M61.5493 42.6074L50.9071 42.8726L46.0221 31.358L41.9885 43.3053L31.3672 44.6172L40.4393 50.2001L38.6946 61.0168L47.4178 54.7361L57.1354 61.0168L54.0474 49.8511L61.5493 42.6074Z" fill="white"/>
<path d="M85.1206 21.766L75.9508 27.1709L66.0832 19.484L68.3651 31.8849L59.7188 38.1934L70.361 38.6645L74.0945 48.9648L78.6655 39.2367L90.2079 40.0044L82.0849 31.7453L85.1206 21.766Z" fill="white"/>
<path d="M28.7493 82.3012C33.0852 82.3012 36.6001 77.0678 36.6001 70.6121C36.6001 64.1565 33.0852 58.9231 28.7493 58.9231C24.4134 58.9231 20.8984 64.1565 20.8984 70.6121C20.8984 77.0678 24.4134 82.3012 28.7493 82.3012Z" fill="white"/>
<path d="M47.8764 17.7045H43.5637L36.3514 6.78313V17.7045H32.0352V0H36.3479L43.5602 10.9702V0H47.8729V17.7045H47.8764Z" fill="white"/>
<path d="M55.2385 0V10.5934C55.2385 11.6541 55.5002 12.4671 56.0201 13.0394C56.54 13.6116 57.3076 13.8977 58.316 13.8977C59.3244 13.8977 60.0991 13.6116 60.6364 13.0394C61.1737 12.4671 61.4424 11.6507 61.4424 10.5934V0H65.7552V10.569C65.7552 12.1496 65.4202 13.486 64.7468 14.5781C64.0733 15.6703 63.1696 16.4938 62.0356 17.0485C60.9016 17.6033 59.635 17.8825 58.2393 17.8825C56.8436 17.8825 55.5944 17.6103 54.4953 17.0625C53.3927 16.5147 52.5239 15.6912 51.8853 14.5921C51.2468 13.4895 50.9258 12.1496 50.9258 10.569V0H55.2385Z" fill="white"/>
<path d="M81.5196 0V3.45437H76.83V17.7045H72.5173V3.45437H67.8242V0H81.5196Z" fill="white"/>
<path d="M94.7119 14.5781H88.1032L87.0425 17.7045H82.5273L88.9336 0H93.9268L100.333 17.7045H95.7691L94.7119 14.5781ZM93.6023 11.2494L91.4075 4.76634L89.2372 11.2494H93.6023Z" fill="white"/>
<path d="M118.115 17.7045H113.802L106.59 6.78313V17.7045H102.277V0H106.59L113.802 10.9702V0H118.115V17.7045Z" fill="white"/>
<path d="M44.8198 136.919C44.3488 137.767 43.6265 138.454 42.6495 138.974C41.676 139.494 40.4652 139.755 39.0172 139.755H36.3444V146.113H32.0352V128.405H39.0207C40.4338 128.405 41.6271 128.649 42.6006 129.138C43.5742 129.626 44.3069 130.296 44.7954 131.154C45.2839 132.013 45.5281 132.997 45.5281 134.106C45.5281 135.132 45.2909 136.067 44.8198 136.919ZM40.535 135.743C40.9398 135.355 41.1386 134.811 41.1386 134.103C41.1386 133.394 40.9363 132.85 40.535 132.463C40.1302 132.076 39.5161 131.884 38.6927 131.884H36.3479V136.322H38.6927C39.5161 136.325 40.1302 136.13 40.535 135.743Z" fill="white"/>
<path d="M52.008 128.405V138.998C52.008 140.059 52.2697 140.875 52.7896 141.444C53.3095 142.016 54.0772 142.303 55.0856 142.303C56.094 142.303 56.8686 142.016 57.4059 141.444C57.9433 140.872 58.212 140.059 58.212 138.998V128.405H62.5247V138.974C62.5247 140.554 62.1897 141.891 61.5163 142.983C60.8429 144.075 59.9391 144.899 58.8051 145.453C57.6711 146.008 56.4045 146.287 55.0088 146.287C53.6131 146.287 52.3639 146.015 51.2648 145.467C50.1622 144.92 49.2934 144.096 48.6549 142.997C48.0163 141.894 47.6953 140.554 47.6953 138.974V128.405H52.008Z" fill="white"/>
<path d="M78.7441 138.555C79.3652 139.354 79.6757 140.265 79.6757 141.291C79.6757 142.77 79.1593 143.943 78.123 144.808C77.0867 145.673 75.6456 146.106 73.7963 146.106H65.5547V128.405H73.5242C75.3246 128.405 76.7308 128.817 77.7497 129.64C78.7685 130.464 79.2745 131.584 79.2745 132.993C79.2745 134.037 79.0023 134.902 78.4545 135.593C77.9067 136.284 77.1809 136.762 76.2737 137.03C77.2996 137.25 78.123 137.76 78.7441 138.555ZM69.8674 135.568H72.6937C73.3986 135.568 73.9429 135.411 74.3197 135.101C74.6966 134.79 74.8885 134.333 74.8885 133.726C74.8885 133.119 74.7001 132.658 74.3197 132.337C73.9429 132.016 73.3986 131.859 72.6937 131.859H69.8674V135.568ZM74.721 142.139C75.1153 141.811 75.3142 141.336 75.3142 140.715C75.3142 140.094 75.1083 139.605 74.6966 139.253C74.2848 138.901 73.7161 138.723 72.9938 138.723H69.8674V142.631H73.0461C73.7684 142.631 74.3267 142.467 74.721 142.139Z" fill="white"/>
<path d="M86.4846 142.781H92.1337V146.109H82.1719V128.405H86.4846V142.781Z" fill="white"/>
<path d="M98.5159 128.405V146.109H94.2031V128.405H98.5159Z" fill="white"/>
<path d="M102.048 132.554C102.805 131.182 103.859 130.115 105.213 129.35C106.567 128.586 108.102 128.203 109.815 128.203C111.916 128.203 113.716 128.757 115.213 129.867C116.71 130.976 117.711 132.491 118.214 134.406H113.472C113.12 133.667 112.617 133.105 111.972 132.718C111.323 132.33 110.59 132.138 109.766 132.138C108.437 132.138 107.362 132.602 106.539 133.524C105.715 134.448 105.304 135.683 105.304 137.233C105.304 138.782 105.715 140.014 106.539 140.942C107.362 141.866 108.437 142.331 109.766 142.331C110.59 142.331 111.326 142.139 111.972 141.751C112.617 141.364 113.12 140.802 113.472 140.063H118.214C117.708 141.978 116.71 143.489 115.213 144.588C113.716 145.691 111.916 146.239 109.815 146.239C108.098 146.239 106.567 145.855 105.213 145.091C103.859 144.326 102.805 143.262 102.048 141.901C101.291 140.541 100.914 138.984 100.914 137.236C100.914 135.488 101.291 133.925 102.048 132.554Z" fill="white"/>
<path d="M34.8789 169.278C34.0275 168.929 33.3506 168.413 32.8412 167.732C32.3317 167.048 32.0631 166.228 32.0352 165.265H35.8385C35.8943 165.81 36.0827 166.225 36.4037 166.508C36.7247 166.794 37.1434 166.937 37.6564 166.937C38.1867 166.937 38.602 166.815 38.909 166.57C39.2161 166.326 39.3696 165.988 39.3696 165.555C39.3696 165.192 39.2475 164.892 39.0032 164.655C38.759 164.418 38.4589 164.222 38.103 164.069C37.7471 163.915 37.2411 163.741 36.5886 163.545C35.6396 163.252 34.8684 162.959 34.2683 162.666C33.6681 162.373 33.1517 161.94 32.7225 161.371C32.2899 160.799 32.0735 160.056 32.0735 159.135C32.0735 157.77 32.569 156.699 33.5565 155.928C34.5439 155.154 35.835 154.77 37.4226 154.77C39.0381 154.77 40.3431 155.157 41.3306 155.928C42.318 156.703 42.8484 157.777 42.9182 159.156H39.0521C39.0242 158.681 38.8497 158.308 38.5287 158.036C38.2077 157.764 37.7959 157.627 37.297 157.627C36.8643 157.627 36.5154 157.743 36.2502 157.973C35.985 158.203 35.8524 158.535 35.8524 158.967C35.8524 159.442 36.0757 159.812 36.5224 160.073C36.969 160.339 37.6633 160.625 38.6124 160.932C39.558 161.253 40.3291 161.56 40.9223 161.853C41.5155 162.146 42.0284 162.572 42.4576 163.127C42.8903 163.685 43.1066 164.4 43.1066 165.279C43.1066 166.117 42.8937 166.874 42.4681 167.558C42.0424 168.242 41.4248 168.783 40.6187 169.187C39.8092 169.592 38.8567 169.794 37.7541 169.794C36.6898 169.801 35.7268 169.627 34.8789 169.278Z" fill="white"/>
<path d="M45.6413 158.42C46.2694 157.286 47.1417 156.399 48.2652 155.764C49.3853 155.129 50.6589 154.812 52.079 154.812C53.8202 154.812 55.3101 155.272 56.5522 156.19C57.7909 157.108 58.6214 158.364 59.0401 159.951H55.1112C54.8181 159.337 54.4029 158.873 53.869 158.552C53.3317 158.231 52.721 158.071 52.0406 158.071C50.938 158.071 50.0483 158.455 49.3644 159.219C48.6805 159.986 48.342 161.009 48.342 162.289C48.342 163.57 48.684 164.596 49.3644 165.363C50.0483 166.131 50.938 166.511 52.0406 166.511C52.7245 166.511 53.3317 166.351 53.869 166.03C54.4064 165.709 54.8216 165.241 55.1112 164.631H59.0401C58.6214 166.218 57.7944 167.471 56.5522 168.382C55.3136 169.296 53.8202 169.749 52.079 169.749C50.6589 169.749 49.3853 169.432 48.2652 168.797C47.1452 168.162 46.2694 167.282 45.6413 166.152C45.0133 165.021 44.6992 163.734 44.6992 162.286C44.7027 160.848 45.0167 159.557 45.6413 158.42Z" fill="white"/>
<path d="M73.9423 154.983V169.655H70.3693V163.615H64.8074V169.655H61.2344V154.983H64.8074V160.729H70.3658V154.983H73.9423Z" fill="white"/>
<path d="M79.6568 168.838C78.5088 168.196 77.5946 167.303 76.9177 166.152C76.2408 165.004 75.9023 163.709 75.9023 162.275C75.9023 160.841 76.2408 159.55 76.9177 158.409C77.5946 157.268 78.5053 156.375 79.6568 155.733C80.8048 155.091 82.0714 154.773 83.4496 154.773C84.8279 154.773 86.0945 155.094 87.2425 155.733C88.3904 156.375 89.2976 157.264 89.9606 158.409C90.6236 159.553 90.9515 160.841 90.9515 162.275C90.9515 163.709 90.6166 165.004 89.9466 166.152C89.2767 167.3 88.373 168.196 87.2285 168.838C86.084 169.48 84.8244 169.798 83.4461 169.798C82.0679 169.798 80.8082 169.48 79.6568 168.838ZM86.262 165.37C86.9668 164.588 87.3157 163.559 87.3157 162.275C87.3157 160.981 86.9633 159.944 86.262 159.17C85.5571 158.395 84.622 158.011 83.4496 158.011C82.2668 158.011 81.3212 158.395 80.6163 159.159C79.9115 159.927 79.5591 160.963 79.5591 162.272C79.5591 163.566 79.9115 164.602 80.6163 165.374C81.3212 166.148 82.2633 166.535 83.4496 166.535C84.622 166.539 85.5571 166.148 86.262 165.37Z" fill="white"/>
<path d="M96.0826 168.838C94.9346 168.196 94.0204 167.303 93.3435 166.152C92.6666 165.004 92.3281 163.709 92.3281 162.275C92.3281 160.841 92.6666 159.55 93.3435 158.409C94.0204 157.268 94.9311 156.375 96.0826 155.733C97.2305 155.091 98.4971 154.773 99.8754 154.773C101.254 154.773 102.52 155.094 103.668 155.733C104.816 156.375 105.723 157.264 106.386 158.409C107.049 159.553 107.377 160.841 107.377 162.275C107.377 163.709 107.042 165.004 106.372 166.152C105.702 167.3 104.799 168.196 103.654 168.838C102.51 169.48 101.25 169.798 99.8719 169.798C98.4937 169.798 97.234 169.48 96.0826 168.838ZM102.688 165.37C103.393 164.588 103.742 163.559 103.742 162.275C103.742 160.981 103.389 159.944 102.688 159.17C101.983 158.395 101.048 158.011 99.8754 158.011C98.6925 158.011 97.747 158.395 97.0421 159.159C96.3373 159.927 95.9849 160.963 95.9849 162.272C95.9849 163.566 96.3373 164.602 97.0421 165.374C97.747 166.148 98.6891 166.535 99.8754 166.535C101.048 166.539 101.983 166.148 102.688 165.37Z" fill="white"/>
<path d="M112.94 166.895H117.623V169.655H109.367V154.983H112.94V166.895Z" fill="white"/>
</svg>
